<?xml version="1.0" encoding="UTF-8" standalone="no"?>
<!DOCTYPE svg PUBLIC "-//W3C//DTD SVG 1.1//EN" "http://www.w3.org/Graphics/SVG/1.1/DTD/svg11.dtd">
<svg version="1.1" xmlns="http://www.w3.org/2000/svg" xmlns:xlink="http://www.w3.org/1999/xlink" preserveAspectRatio="xMidYMid meet" viewBox="0 0 937.19 375.97" width="937.19" height="375.97"><defs><path d="M771.89 103.2C748.85 152.86 739.53 170.44 727.55 185.88C718.9 197.2 711.97 201.99 705.05 201.46C697.73 200.93 697.33 197.33 703.98 187.74C713.7 173.63 717.7 166.57 717.7 163.38C717.7 159.65 712.37 150.2 707.84 145.94C702.92 141.41 694.13 140.74 686.54 144.47C673.76 150.6 659.65 171.37 656.32 188.81C654.85 197.2 655.92 202.79 660.05 207.32C662.71 210.38 673.23 210.51 680.02 207.72C684.68 205.72 684.94 205.85 688.01 208.65C690.54 211.04 692.8 211.58 698.79 211.71C699.3 211.71 701.83 211.71 706.38 211.71C693.6 224.49 686.5 231.59 685.08 233.01C673.36 244.73 660.18 259.11 655.79 265.1C655.25 265.82 652.59 269.42 647.8 275.89C561.92 275.49 514.21 275.26 504.67 275.22C371.66 274.69 254.75 276.02 202.43 278.82C201.32 278.88 195.77 279.19 185.79 279.75C197.77 280.39 204.43 280.74 205.76 280.81C226.93 282.01 578.43 280.81 620.9 279.48C622.57 279.42 630.91 279.11 645.93 278.55C642.26 284.06 640.22 287.12 639.81 287.74C629.96 302.65 619.3 325.15 616.24 337.93C613.71 348.18 613.58 350.71 614.91 356.97C617.71 370.69 625.03 376.81 637.15 375.88C648.86 374.95 659.25 365.49 672.16 344.19C677.09 336.07 717.83 251.25 735.41 212.64C740.33 201.86 745.52 192.54 748.72 188.94C755.11 181.62 789.33 153.79 791.86 153.79C795.05 153.79 793.72 158.99 786.27 174.03C782.27 182.29 778.68 191.47 778.15 194.54C777.08 201.72 780.28 209.18 785.2 211.18C790.79 213.44 801.98 210.65 810.63 204.92C816.09 201.33 817.69 200.79 816.89 202.52C815.03 206.92 814.49 212.38 815.96 212.38C819.15 212.38 824.48 209.45 827.67 206.12C829.54 204.12 834.2 196.4 837.93 189.08C844.45 176.43 857.63 160.05 859.63 162.18C860.16 162.58 859.1 166.84 857.5 171.63C851.77 187.88 856.57 188.54 871.35 173.63C880.93 163.91 885.73 160.45 889.45 160.45C891.18 160.45 888.26 168.04 879.6 185.75C871.21 203.19 868.15 214.24 868.15 227.82C868.15 239.94 870.95 247.93 877.47 254.32C882.4 259.11 883.46 259.51 891.45 260.04C899.17 260.57 901.17 260.18 908.49 256.58C921.81 249.92 938.45 231.42 937.12 224.76C936.72 222.89 933.79 225.29 924.74 234.48C911.69 247.53 903.83 252.32 895.18 252.32C882.66 252.32 877.07 235.54 882.26 213.71C883.33 208.91 889.05 195.07 894.91 182.82C903.97 163.91 905.56 159.65 905.17 154.86C905.14 154.48 905.01 152.57 904.77 149.13C899.97 149.13 897.31 149.13 896.78 149.13C889.59 149.13 887.99 149.67 881.73 154.06C874.94 159.12 874.81 159.12 874.81 155.92C874.81 148.6 867.09 146.34 858.96 151.26C856.57 152.73 854.44 153.79 854.17 153.53C854.04 153.26 852.84 151.26 851.64 148.87C847.78 141.14 837.93 141.28 831 149.27C828.74 151.8 826.88 154.46 826.88 155.12C826.88 157.12 830.47 156.72 834.86 154.46C838.86 152.46 838.86 152.46 838.86 156.19C838.86 167.77 820.35 192.01 806.77 198.4C790.13 206.12 788.8 200.39 801.05 174.56C808.64 158.32 809.7 152.59 805.57 148.47C803.04 145.94 801.58 145.54 796.25 146.07C789.73 146.74 785.73 149.13 764.96 165.24C752.18 175.23 751.12 178.42 783.87 104.53C810.5 44.35 817.96 29.97 828.21 19.05C834.73 12.26 836.2 11.33 840.59 11.33C845.12 11.33 845.92 11.86 847.65 16.12C849.51 20.52 849.51 21.85 847.38 30.77C846.05 36.23 845.38 40.89 845.78 41.42C846.32 41.82 848.45 41.29 850.58 40.09C858.7 35.83 863.22 22.78 860.3 11.86C857.9 2.67 850.84 -1.59 842.19 0.54C821.68 5.74 807.44 26.37 771.89 103.2ZM696 179.36C683.75 196.27 679.75 200.39 675.09 200.39C662.18 200.39 665.77 175.1 680.68 160.98C691.47 150.6 701.05 148.07 705.18 154.46C708.38 159.38 706.25 165.24 696 179.36ZM675.62 317.43C663.37 343.79 649.13 361.5 640.07 361.5C636.88 361.5 634.62 360.43 631.82 357.5C621.3 346.59 628.76 321.95 653.52 284.81C666.57 265.23 678.82 251.25 701.72 229.29C717.7 214.24 721.69 210.91 721.69 213.04C721.69 214.11 684.41 298.52 675.62 317.43Z" id="b6k1svGvy"></path><path d="M239.18 51.4C204.83 52.2 173.94 53.27 170.61 53.8C143.18 57.93 571.9 57.26 676.42 53C678.15 52.93 686.81 52.58 702.39 51.94C691.2 51.38 684.99 51.07 683.75 51.01C664.04 50.21 346.76 48.74 318.26 49.41C309.08 49.67 273.53 50.47 239.18 51.4Z" id="aQ7Opbyq"></path><path d="M40.26 116.51C39.33 126.76 40.79 131.29 50.78 147.8C55.97 156.32 61.03 165.91 62.23 169.24C68.09 186.68 53.57 204.39 33.34 204.39C29.61 204.39 24.68 203.46 22.55 202.26C17.22 199.59 13.5 191.07 13.36 182.02C13.36 174.56 12.17 173.63 6.97 177.23C-0.35 182.29 -2.35 196.4 3.11 204.52C14.56 221.56 44.12 218.9 64.22 198.93C73.54 189.74 77.81 180.42 77.81 169.77C77.81 159.78 76.61 156.86 65.29 141.14C61.03 135.29 56.64 128.5 55.3 125.97C52.24 119.84 52.24 111.19 55.44 105.73C58.9 99.6 69.02 94.54 75.28 95.74C80.47 96.81 87.39 102 88.59 105.86C89.66 109.32 92.98 109.19 97.78 105.33C101.24 102.4 101.5 101.87 100.04 97.61C98.18 91.75 93.65 87.49 87.79 85.89C81.53 84.03 77.81 84.29 69.02 87.09C53.57 92.01 41.46 104.4 40.26 116.51Z" id="e1bRc4b86o"></path><path d="M502 119.84C502.14 125.03 506.93 136.48 514.39 148.73C526.64 169.1 528.77 182.69 521.58 193.6C509.73 211.44 475.77 205.85 475.24 185.75C475.11 183.22 474.71 179.62 474.18 178.03C474.12 177.81 473.86 176.75 473.38 174.83C471.3 176.51 470.15 177.44 469.92 177.63C462.06 183.75 459.93 195.47 465.12 203.19C477.24 221.3 505.07 219.57 526.24 199.33C536.35 189.74 540.62 180.82 540.62 169.37C540.62 159.38 538.35 154.46 526.1 137.95C517.45 126.23 514.65 118.78 515.98 111.59C517.98 100.93 532.36 92.55 541.95 96.54C544.21 97.47 547.67 100.54 549.54 103.46C551.4 106.26 553.93 108.52 555.26 108.52C558.19 108.52 563.25 103.06 563.25 100C563.25 95.34 558.06 88.82 552.6 86.69C546.34 84.16 542.21 84.16 533.83 86.42C516.78 90.95 501.87 106.66 502 119.84Z" id="edVPuR8PN"></path><path d="M128 124.5C132 124.5 137.19 118.64 137.19 113.98C137.19 106.13 130.13 103.33 125.34 109.32C120.81 115.18 122.41 124.5 128 124.5Z" id="a27sdv1RXf"></path><path d="M814.89 123.84C821.42 125.83 827.14 117.04 824.35 109.46C822.75 105.33 818.49 104.66 813.96 107.86C808.5 111.72 809.03 121.97 814.89 123.84Z" id="b3fMESa43m"></path><path d="M258.35 144.07C258.35 144.87 255.55 146.47 252.09 147.8C239.31 152.73 224.66 170.44 220.4 186.28C217.47 197.2 218.54 203.46 224.4 209.31C228.13 213.04 229.72 213.71 235.32 213.71C250.09 213.71 268.07 196.8 274.33 177.09C275.26 174.16 277.26 170.3 278.85 168.71C281.92 165.11 300.56 152.46 302.42 152.46C304.82 152.46 303.35 156.32 292.3 179.09C286.04 191.87 280.58 204.65 280.05 207.32C279.39 212.11 279.52 212.38 282.71 212.38C288.71 212.38 294.7 205.45 303.49 188.41C312.41 171.23 317.07 164.98 325.45 158.85C337.44 150.2 338.5 155.79 329.05 176.56C321.19 193.47 319.06 200.66 320.13 206.52C321.19 211.44 322.79 212.38 331.31 212.38C338.1 212.38 346.89 208.91 353.81 203.59C354.11 203.37 355.57 202.26 358.21 200.26C358.21 202.34 358.21 203.49 358.21 203.72C358.21 205.59 359.67 208.65 361.67 210.65C364.73 213.71 365.8 213.97 372.85 213.44C387.23 212.38 410.67 197.86 421.05 183.48C431.7 168.71 428.64 169.1 411.86 184.55C391.76 203.32 380.71 208.25 374.05 201.59C371.79 199.33 371.39 197.6 371.79 193.07C372.72 185.48 376.58 180.69 389.76 170.97C402.68 161.52 407.47 155.79 407.47 150.33C407.47 145.01 405.34 143.14 398.82 143.14C387.63 143.14 372.59 158.59 360.47 182.42C357.94 187.48 354.08 193.34 351.95 195.33C348.35 198.8 338.77 203.06 334.51 203.06C331.58 203.06 333.18 197.33 340.5 180.69C347.02 165.64 349.15 154.06 346.36 148.73C345.43 147.14 342.9 145.54 340.23 145.01C336.5 144.34 334.11 145.01 326.92 149C318.4 153.66 318.26 153.66 318.26 150.73C318.26 146.2 315.73 144.47 309.08 144.47C301.89 144.47 294.56 147.67 286.31 154.33C285.91 154.64 283.91 156.24 280.32 159.12C279.76 155.36 279.45 153.28 279.39 152.86C278.19 144.87 275.79 139.28 272.86 137.82C268.87 135.55 264.34 136.35 261.28 139.55C259.68 141.28 258.35 143.27 258.35 144.07ZM269.67 157.79C268.47 155.79 270.07 152.06 271.66 153.13C272.33 153.53 273 155.12 273 156.59C273 159.25 271 160.05 269.67 157.79ZM381.51 168.17C380.04 166.84 383.64 160.05 387.63 156.32C391.76 152.46 395.49 151.26 395.49 153.79C395.49 155.66 382.44 169.1 381.51 168.17ZM264.34 162.98C269.8 168.97 270.07 170.84 265.81 179.89C260.48 191.47 246.9 204.39 240.24 204.39C232.25 204.39 230.92 190.14 237.58 175.63C241.84 166.18 245.3 161.91 251.43 158.19C256.75 154.86 259.68 154.33 259.68 156.46C259.68 157.12 261.81 160.05 264.34 162.98Z" id="bjnalPxJ4"></path><path d="M639.54 152.73C639.35 152.91 638.37 153.79 636.61 155.39C633.5 152.12 631.77 150.3 631.42 149.93C628.62 147 625.3 144.47 623.96 144.47C619.97 144.47 612.78 148.2 611.32 150.86C608.79 155.66 609.72 156.72 613.71 153.93C620.24 149.13 622.37 150.86 620.1 159.12C614.78 178.69 595.87 198.93 578.96 203.06C566.98 206.12 561.25 201.46 564.45 191.07C566.58 183.75 571.24 178.82 585.22 168.44C599.2 158.19 602.39 153.26 599.07 147.27C597.47 144.47 596 143.67 591.08 143.41C579.63 142.61 568.71 153.53 556.46 177.89C553 184.95 549.14 191.07 547.94 191.61C545.28 192.54 545.81 198.4 548.6 198.4C549.67 198.4 550.87 199.86 551.27 201.72C552.73 209.31 557.26 212.38 566.31 212.38C574.17 212.38 587.75 208.12 595.47 203.19C595.89 202.92 597.97 201.59 601.73 199.2C600.85 201.19 600.36 202.3 600.26 202.52C598.93 205.19 599.2 206.38 601.33 209.31C602.79 211.31 604.66 213.04 605.46 213.31C608.25 214.24 612.51 207.98 616.77 196.67C620.77 186.01 626.49 177.23 636.88 165.38C641.27 160.18 641.41 160.18 647.13 161.78C654.99 163.91 660.84 162.58 664.97 157.65C666.84 155.39 668.43 152.99 668.43 152.33C668.43 149.8 664.04 149.4 660.31 151.66C654.99 154.86 655.52 152.59 661.11 148.07C666.57 143.67 667.37 139.15 662.71 139.15C660.98 139.15 655.65 141.54 650.99 144.61C646.33 147.67 641.14 151.26 639.54 152.73ZM575.1 167.24C574.82 167.44 573.45 168.41 570.97 170.17C572.65 166.97 573.58 165.2 573.77 164.84C575.23 161.91 578.3 157.92 580.56 155.92C584.95 152.33 588.01 151.26 586.42 154.06C583.75 158.85 578.83 164.58 575.1 167.24Z" id="gJ4smz0Xv"></path><path d="M141.45 155.79C141.85 156.19 143.98 155.52 146.24 154.19C148.5 152.86 150.64 152.2 151.03 152.59C152.63 154.06 147.71 166.84 142.51 174.96C135.59 185.75 126.14 194.67 117.88 198.53C110.29 202.12 107.76 202.39 105.5 200.13C102.84 197.46 103.64 194.4 111.89 177.63C120.28 160.58 121.88 152.99 118.01 147.8C115.35 144.21 103.9 144.34 98.84 148.07C91.65 153.39 93.78 159.38 101.64 155.66C104.3 154.33 106.96 153.66 107.36 154.19C107.76 154.59 104.83 162.18 100.71 170.84C87.92 198.26 86.86 207.85 96.45 211.04C103.37 213.31 112.69 211.04 122.81 204.79C129.33 200.79 129.73 200.93 127.07 205.85C124.54 210.91 126 212.91 131.2 211.58C137.05 210.11 143.05 202.92 150.9 187.48C156.23 177.09 160.22 171.23 164.62 167.11C168.21 163.78 171.14 161.91 171.54 162.85C171.81 163.65 170.74 167.77 169.28 171.77C165.55 181.75 165.68 183.08 170.34 183.08C173.54 183.08 176.86 180.69 186.45 171.77C193.11 165.51 199.77 160.45 201.23 160.45C204.69 160.45 204.56 160.98 198.97 169.37C189.51 183.62 181.52 206.92 180.19 224.36C177.93 253.52 196.3 268.03 220.4 256.18C234.25 249.39 249.03 234.21 249.03 226.62C249.03 222.36 245.57 224.49 236.78 234.21C226.26 245.66 217.21 250.99 207.89 250.99C200.96 250.86 198.43 249.39 195.5 243.67C188.18 229.29 193.37 205.45 209.75 176.69C215.74 166.04 217.07 162.71 217.07 157.52C217.07 145.8 209.88 144.87 194.17 154.33C193.68 154.63 191.19 156.14 186.72 158.85C186.16 156.7 185.85 155.5 185.79 155.26C185.25 153.39 184.32 151 183.52 150.2C181.52 147.67 175.67 148.07 171.14 151.13C166.08 154.46 165.15 154.46 165.15 151C165.15 149.53 164.48 147.14 163.82 145.67C161.95 142.21 153.83 142.34 148.11 145.8C143.98 148.33 139.98 154.33 141.45 155.79Z" id="a8m1rJG4e"></path></defs><g><g><g><use xlink:href="#b6k1svGvy" opacity="1" fill="#f8e9d2" fill-opacity="1"></use><g><use xlink:href="#b6k1svGvy" opacity="1" fill-opacity="0" stroke="#000000" stroke-width="1" stroke-opacity="0"></use></g></g><g><use xlink:href="#aQ7Opbyq" opacity="1" fill="#f8e9d2" fill-opacity="1"></use><g><use xlink:href="#aQ7Opbyq" opacity="1" fill-opacity="0" stroke="#000000" stroke-width="1" stroke-opacity="0"></use></g></g><g><use xlink:href="#e1bRc4b86o" opacity="1" fill="#f8e9d2" fill-opacity="1"></use><g><use xlink:href="#e1bRc4b86o" opacity="1" fill-opacity="0" stroke="#000000" stroke-width="1" stroke-opacity="0"></use></g></g><g><use xlink:href="#edVPuR8PN" opacity="1" fill="#f8e9d2" fill-opacity="1"></use><g><use xlink:href="#edVPuR8PN" opacity="1" fill-opacity="0" stroke="#000000" stroke-width="1" stroke-opacity="0"></use></g></g><g><use xlink:href="#a27sdv1RXf" opacity="1" fill="#f8e9d2" fill-opacity="1"></use><g><use xlink:href="#a27sdv1RXf" opacity="1" fill-opacity="0" stroke="#000000" stroke-width="1" stroke-opacity="0"></use></g></g><g><use xlink:href="#b3fMESa43m" opacity="1" fill="#f8e9d2" fill-opacity="1"></use><g><use xlink:href="#b3fMESa43m" opacity="1" fill-opacity="0" stroke="#000000" stroke-width="1" stroke-opacity="0"></use></g></g><g><use xlink:href="#bjnalPxJ4" opacity="1" fill="#f8e9d2" fill-opacity="1"></use><g><use xlink:href="#bjnalPxJ4" opacity="1" fill-opacity="0" stroke="#000000" stroke-width="1" stroke-opacity="0"></use></g></g><g><use xlink:href="#gJ4smz0Xv" opacity="1" fill="#f8e9d2" fill-opacity="1"></use><g><use xlink:href="#gJ4smz0Xv" opacity="1" fill-opacity="0" stroke="#000000" stroke-width="1" stroke-opacity="0"></use></g></g><g><use xlink:href="#a8m1rJG4e" opacity="1" fill="#f8e9d2" fill-opacity="1"></use><g><use xlink:href="#a8m1rJG4e" opacity="1" fill-opacity="0" stroke="#000000" stroke-width="1" stroke-opacity="0"></use></g></g></g></g></svg>